<svg width="19" height="19" viewBox="0 0 19 19" fill="none" xmlns="http://www.w3.org/2000/svg">
<path d="M17.0627 0.60375C16.2587 -0.20125 14.8557 -0.20125 14.0507 0.60375L6.90774 7.74675C6.83974 7.81475 6.79074 7.90075 6.76774 7.99375L6.01574 11.0048C5.97074 11.1858 6.02373 11.3777 6.15573 11.5107C6.25673 11.6117 6.39274 11.6667 6.53174 11.6667C6.57474 11.6667 6.61774 11.6618 6.66074 11.6508L9.67274 10.8977C9.76674 10.8747 9.85173 10.8258 9.91973 10.7578L17.0627 3.61475C17.4647 3.21275 17.6867 2.67775 17.6867 2.10875C17.6867 1.53975 17.4657 1.00575 17.0627 0.60375ZM9.27174 9.90075L7.26374 10.4028L7.76574 8.39475L13.6747 2.48575L15.1807 3.99175L9.27174 9.90075ZM16.3097 2.86175L15.9337 3.23775L14.4277 1.73175L14.8037 1.35575C15.2057 0.95375 15.9077 0.95375 16.3097 1.35575C16.5107 1.55675 16.6217 1.82375 16.6217 2.10875C16.6217 2.39375 16.5107 2.66075 16.3097 2.86175Z" fill="black"/>
<path d="M17.038 15.414C17.038 16.295 16.322 17.038 15.441 17.038H2.662C1.781 17.038 1.065 16.295 1.065 15.414V2.635C1.065 1.754 1.781 1.064 2.662 1.064H10.116V0H2.662C1.194 0 0 1.168 0 2.636V15.414C0 16.882 1.194 18.102 2.662 18.102H15.44C16.908 18.102 18.102 16.881 18.102 15.414V7.986H17.037L17.038 15.414Z" fill="black"/>
</svg>
